PathFileType	4	(X/Y/Z)	path1_03_0-527.trc
DataRate	CameraRate	NumFrames	NumMarkers	Units	OrigDataRate	OrigDataStartFrame	OrigNumFrames
30	30	7	22	m	30	131	527
Frame#	Time	Hip			RHip			RKnee			RAnkle			RBigToe			RSmallToe			RHeel			LHip			LKnee			LAnkle			LBigToe			LSmallToe			LHeel			Neck			Head			Nose			RShoulder			RElbow			RWrist			LShoulder			LElbow			LWrist		
		X1	Y1	Z1	X2	Y2	Z2	X3	Y3	Z3	X4	Y4	Z4	X5	Y5	Z5	X6	Y6	Z6	X7	Y7	Z7	X8	Y8	Z8	X9	Y9	Z9	X10	Y10	Z10	X11	Y11	Z11	X12	Y12	Z12	X13	Y13	Z13	X14	Y14	Z14	X15	Y15	Z15	X16	Y16	Z16	X17	Y17	Z17	X18	Y18	Z18	X19	Y19	Z19	X20	Y20	Z20	X21	Y21	Z21	X22	Y22	Z22
132	4.4	2.637648687653918	0.8298311763136836	0.6897216941657428	2.644097148727811	0.7951267138471546	0.6137715912304206	2.6167189313637547	0.46881419287259984	0.5914740372235472	2.694859625000241	0.09609772336870333	0.6211456038593878	2.497374343740577	0.029329200552366153	0.5749821652121356	2.5397450828474546	0.025582144969849317	0.5194982373046858	2.741519023138956	0.028203391201530988	0.6222430932523835	2.6303087447349567	0.7958282545927906	0.7766568097815619	2.6414894931157265	0.43019566507524304	0.7843884209566031	2.688134640519004	0.0992294669521599	0.7801561165906752	2.52559060846173	0.0015483681209817535	0.7803042277641086	2.5380827838000544	0.02577156317791781	0.8350326642703327	2.744133036645401	0.026546228198393126	0.7766666853212629	2.5908546151185687	1.4615187942061467	0.7034530431266757	2.5354719483310215	1.703648313563741	0.6531091720734793	2.4513109319576523	1.5979877856008116	0.675846536690796	2.646572152374327	1.3605137433752719	0.5305564989510854	2.6750556370116225	1.0669197084022861	0.5189275985490964	2.607796326031974	0.8439253132438286	0.46941838302237887	2.592285482422528	1.3427176088916215	0.8699584538115713	2.6532497390172716	1.0672755027920802	0.8913246865851477	2.6395177054544434	0.8368423937486033	0.8938896039868347
133	4.433333333333334	2.6379836325341692	0.8297101514705235	0.6896686987173923	2.644513408301062	0.7951417072771967	0.6137694960201203	2.6167118151833395	0.46908571900443996	0.5914160299683731	2.6940949316725606	0.09676896045125288	0.6199497051581492	2.4979169594357358	0.029059311621877977	0.5767970430209695	2.539537206335132	0.025562229568310585	0.5191000385667498	2.7414126963341405	0.02778641503155375	0.6206339298717487	2.6304433272711574	0.7960876323634458	0.77692119698418	2.6392860486774414	0.4321468901120844	0.7844297250321857	2.68915232157577	0.09877787180915476	0.7819398488397192	2.5245231468384297	0.0021817621963783327	0.7801619924431026	2.5385550646644086	0.025785382503113297	0.8354513295062282	2.7442652207472027	0.027010647593440858	0.7770102501187705	2.5910703152741736	1.4614671184948755	0.7032234101356317	2.5318834968095847	1.70027698370975	0.658138595293694	2.4518083196807887	1.5983419993107961	0.6760546539211665	2.646814956149087	1.3606084141259136	0.5308323440890326	2.6748444898147734	1.0670085754119616	0.5181314925353359	2.6079219380813177	0.843694777826462	0.4692014887708981	2.592375325326695	1.3432193026149604	0.8697751685411728	2.6532988171384466	1.067588928372556	0.8913611297043725	2.6395502728680618	0.837502850188786	0.8939240952548022
134	4.466666666666667	2.6382760943738086	0.8296612909842332	0.6896727629022161	2.6450378691112673	0.7952691660560279	0.6140137317366168	2.6167594106426786	0.469408322960478	0.5914730679435761	2.6923381306772782	0.0981693906130443	0.6174556217279346	2.498669483428731	0.02872189469062424	0.5794234483478479	2.539167576164966	0.025561080310318344	0.5186603938199538	2.741118692227651	0.02763962589233369	0.6191874880912248	2.6304052782743046	0.796674519751491	0.7774315965546448	2.6356269917128192	0.4354651993079482	0.7843469150140918	2.6897181149479086	0.0987517630521857	0.7836483273237032	2.522767189092249	0.004012676124858936	0.7805885583588633	2.5375289585115643	0.026497224771230978	0.8355222215789644	2.7443937260398843	0.027486015138968343	0.7775106985540263	2.5913981130287036	1.4613352751188893	0.7029363610082091	2.527580464837405	1.6963650654846292	0.6642967602994111	2.4522401722317873	1.5986508310108711	0.6758834413403333	2.64708291625094	1.360695344081771	0.5310250230270434	2.674272393265913	1.067138084464057	0.5169283137650214	2.6080136703956645	0.8434156631544508	0.4689760916668748	2.5927609132605225	1.343951829571678	0.8694962109794971	2.653399802339501	1.0679672093122254	0.8913402403990672	2.6394844690851107	0.8381091036579145	0.8941745446463044
135	4.5	2.638455051726057	0.8297688408326769	0.689767390702002	2.645482400760383	0.7954769073981206	0.6144613852376748	2.616812041116635	0.46972437686623675	0.5916644094443505	2.6899893872986382	0.10004943416169637	0.6143075261208332	2.499508968105458	0.02843672890715911	0.582291490570843	2.538788384448228	0.02564853945058678	0.5183100000738471	2.7406847617064027	0.027920422365855384	0.6186409420266599	2.6303035200872906	0.7974168777928654	0.7781399432324847	2.6310787689355513	0.4397857383364638	0.7841272953837906	2.690041447177763	0.09895748534917305	0.7852657351027693	2.5205226888021706	0.006842614895869953	0.781457227048542	2.5354958745224816	0.027720155422451886	0.8353813743186694	2.7445681868474883	0.02790434537453975	0.77813987916289	2.5918070194047496	1.4611548395709264	0.7026043612282536	2.5230346096330534	1.6921985583955073	0.6708725679989906	2.452534139614621	1.5988082351021196	0.67520260177741	2.6473017723191696	1.3607262710379089	0.5310187984415269	2.6732017657698472	1.0672854733757546	0.5150879175756939	2.6080457296647297	0.8431237642652044	0.46874170432985984	2.5935427500727632	1.344735072438208	0.8690097403287628	2.6535201865440134	1.068349828158027	0.8912799585863471	2.6393043563781373	0.8385337493157426	0.8945775624566353
136	4.533333333333333	2.6384972702557046	0.8300460273266345	0.6899421225419089	2.6456617251814984	0.7956433451209433	0.6149240938579458	2.616780997946995	0.46996491146801955	0.5919313395565533	2.6879256907221647	0.10174795134622255	0.6116670109431477	2.500171302127981	0.02829192892759862	0.5844346185406322	2.5385483246018388	0.025814788534592154	0.5181506615030134	2.7402868129546856	0.028509574534361877	0.6190963810979075	2.630272199647999	0.7980132436546354	0.7788354615739032	2.6269304247124414	0.44396438091312607	0.7839328876752419	2.690418611975151	0.09908256438378187	0.7867833224804223	2.5182966330883088	0.009887473801546224	0.7825255805944588	2.5332123937298188	0.029043707394771138	0.8351901210146031	2.7448384308656397	0.02818292068559269	0.7788165568582412	2.5922028578272744	1.4610219326466296	0.7023186569603483	2.519659603910335	1.6889034549212998	0.6759322831764509	2.4526885275356034	1.5988389383834931	0.6741361569276902	2.6474480962741613	1.3607046214718612	0.530885069147157	2.6716790422348655	1.067488583942884	0.5126556538019632	2.6080034789589446	0.842902626461363	0.4685231262399311	2.594788654161939	1.3453819866975736	0.8680650260727747	2.6536282221258554	1.0686532359146863	0.891239110329509	2.6390365116963173	0.838743822115615	0.8949782330990658
137	4.566666666666666	2.638441148765849	0.8304404513714453	0.6901425953933309	2.645535812580199	0.7956544259971642	0.6152226710379101	2.616670665921721	0.4700707673400632	0.592180170893596	2.686901776063122	0.10264417764299366	0.6104273918060814	2.5003927499467236	0.02832977368329603	0.585066943212156	2.5384801457672665	0.0259653528422617	0.5182119380911062	2.7401786747929284	0.02908618675534711	0.6200432671547543	2.6303688324069814	0.7982715703560289	0.7792868123678243	2.6247098369146222	0.4465358058732717	0.7841577546427106	2.6910946649500462	0.09887678419761341	0.7881902960460354	2.5167916448249543	0.01220539147394975	0.7836065749508891	2.5311839049586036	0.030136640156639905	0.8350007642807016	2.7451715658692533	0.0282695140835776	0.779379275584143	2.592508650206786	1.461029081312314	0.7022467949719506	2.5186254441130935	1.6875118889941925	0.6778262451283329	2.4527564532965545	1.5988285929137636	0.6728699694723093	2.6475654117296394	1.3606935126273467	0.5307845448645787	2.6701735928698818	1.0677569577276123	0.5103249486137372	2.607903381105278	0.8427891151712562	0.46836455214763495	2.5966231230255317	1.3458029984887963	0.8663667413449168	2.6537155250636504	1.0688289129628006	0.8912608707616108	2.6387419072661706	0.8387999377976626	0.8952299999980629
138	4.6	2.6383610358963256	0.8308436815813692	0.6903059089790274	2.645240538807545	0.7954398989489175	0.6153201599573578	2.616582738667776	0.47000497684137366	0.5923307809418525	2.6866842210043567	0.10282392136033212	0.6101668862106377	2.500086686733286	0.0285510528202318	0.584072288530806	2.5384857792782376	0.025985829049109652	0.5184354141324523	2.7404894116984564	0.029407363015605006	0.6208930677363375	2.630547255874991	0.7981670992221981	0.7794221902382452	2.6251185620150146	0.44670439152876146	0.784885064222825	2.692055043591626	0.09831963715103857	0.7893743743102337	2.5166337569635218	0.013098423054485856	0.7846105801184483	2.529687719020523	0.030822681235644297	0.8348166513465322	2.745392736817889	0.028190560981915747	0.7796149982488743	2.59271635816967	1.461206665924618	0.7025070164933451	2.519893228216336	1.6880463346926793	0.6764160943684923	2.452790664585249	1.598840709942202	0.6714950585604289	2.6477142636343953	1.3607559813956493	0.5308361361422965	2.669518749612549	1.06801565300456	0.5093629649209012	2.6077788115308698	0.8427439303077897	0.4682921231268694	2.5991750289462496	1.3460247793105684	0.8637760548419521	2.653766331060289	1.068879007320279	0.8913472490152776	2.638479606050593	0.8387830040728232	0.895274643581098
